<?xml version="1.0" encoding="UTF-8"?>
<svg xmlns="http://www.w3.org/2000/svg" xmlns:xlink="http://www.w3.org/1999/xlink" width="64pt" height="64pt" viewBox="0 0 64 64" version="1.1">
<g id="surface1">
<path style=" stroke:none;fill-rule:nonzero;fill:rgb(98.823529%,76.470588%,3.137255%);fill-opacity:1;" d="M 27.734375 2.132812 L 36.265625 2.132812 L 36.265625 8.535156 L 27.734375 8.535156 Z M 27.734375 2.132812 "/>
<path style=" stroke:none;fill-rule:nonzero;fill:rgb(94.901961%,91.764706%,92.54902%);fill-opacity:1;" d="M 50.132812 25.601562 L 58.667969 25.601562 L 58.667969 33.066406 L 50.132812 33.066406 Z M 50.132812 25.601562 "/>
<path style=" stroke:none;fill-rule:nonzero;fill:rgb(98.823529%,76.470588%,3.137255%);fill-opacity:1;" d="M 50.132812 2.132812 L 58.667969 2.132812 L 58.667969 8.535156 L 50.132812 8.535156 Z M 50.132812 2.132812 "/>
<path style=" stroke:none;fill-rule:nonzero;fill:rgb(94.901961%,91.764706%,92.54902%);fill-opacity:1;" d="M 50.132812 10.667969 L 58.667969 10.667969 L 58.667969 18.132812 L 50.132812 18.132812 Z M 50.132812 10.667969 "/>
<path style=" stroke:none;fill-rule:nonzero;fill:rgb(98.823529%,76.470588%,3.137255%);fill-opacity:1;" d="M 50.132812 20.265625 L 58.667969 20.265625 L 58.667969 23.464844 L 50.132812 23.464844 Z M 50.132812 20.265625 "/>
<path style=" stroke:none;fill-rule:nonzero;fill:rgb(98.823529%,76.470588%,3.137255%);fill-opacity:1;" d="M 58.699219 54.660156 C 58.675781 54.574219 58.667969 54.488281 58.667969 54.398438 L 58.667969 35.199219 L 50.132812 35.199219 L 50.132812 54.398438 C 50.132812 54.488281 50.125 54.574219 50.101562 54.660156 L 49.367188 57.601562 L 59.433594 57.601562 Z M 56.535156 54.398438 L 54.398438 54.398438 L 54.398438 52.265625 L 56.535156 52.265625 Z M 56.535156 50.132812 L 54.398438 50.132812 L 54.398438 48 L 56.535156 48 Z M 56.535156 45.867188 L 54.398438 45.867188 L 54.398438 43.734375 L 56.535156 43.734375 Z M 56.535156 45.867188 "/>
<path style=" stroke:none;fill-rule:nonzero;fill:rgb(98.823529%,76.470588%,3.137255%);fill-opacity:1;" d="M 48 59.734375 L 46.933594 59.734375 L 46.933594 61.867188 L 61.867188 61.867188 L 61.867188 59.734375 Z M 48 59.734375 "/>
<path style=" stroke:none;fill-rule:nonzero;fill:rgb(98.823529%,76.470588%,3.137255%);fill-opacity:1;" d="M 5.332031 2.132812 L 13.867188 2.132812 L 13.867188 8.535156 L 5.332031 8.535156 Z M 5.332031 2.132812 "/>
<path style=" stroke:none;fill-rule:nonzero;fill:rgb(94.901961%,91.764706%,92.54902%);fill-opacity:1;" d="M 5.332031 10.667969 L 13.867188 10.667969 L 13.867188 18.132812 L 5.332031 18.132812 Z M 5.332031 10.667969 "/>
<path style=" stroke:none;fill-rule:nonzero;fill:rgb(98.823529%,76.470588%,3.137255%);fill-opacity:1;" d="M 39.464844 59.734375 L 24.535156 59.734375 L 24.535156 61.867188 L 39.464844 61.867188 Z M 39.464844 59.734375 "/>
<path style=" stroke:none;fill-rule:nonzero;fill:rgb(98.823529%,76.470588%,3.137255%);fill-opacity:1;" d="M 5.332031 20.265625 L 13.867188 20.265625 L 13.867188 23.464844 L 5.332031 23.464844 Z M 5.332031 20.265625 "/>
<path style=" stroke:none;fill-rule:nonzero;fill:rgb(98.823529%,76.470588%,3.137255%);fill-opacity:1;" d="M 13.898438 54.660156 C 13.878906 54.574219 13.867188 54.488281 13.867188 54.398438 L 13.867188 35.199219 L 5.335938 35.199219 L 5.335938 54.398438 C 5.335938 54.488281 5.324219 54.574219 5.300781 54.660156 L 4.566406 57.601562 L 14.632812 57.601562 Z M 11.734375 54.398438 L 9.601562 54.398438 L 9.601562 52.265625 L 11.734375 52.265625 Z M 11.734375 50.132812 L 9.601562 50.132812 L 9.601562 48 L 11.734375 48 Z M 11.734375 45.867188 L 9.601562 45.867188 L 9.601562 43.734375 L 11.734375 43.734375 Z M 11.734375 45.867188 "/>
<path style=" stroke:none;fill-rule:nonzero;fill:rgb(94.901961%,91.764706%,92.54902%);fill-opacity:1;" d="M 5.332031 25.601562 L 13.867188 25.601562 L 13.867188 33.066406 L 5.332031 33.066406 Z M 5.332031 25.601562 "/>
<path style=" stroke:none;fill-rule:nonzero;fill:rgb(98.823529%,76.470588%,3.137255%);fill-opacity:1;" d="M 17.066406 59.734375 L 2.132812 59.734375 L 2.132812 61.867188 L 17.066406 61.867188 Z M 17.066406 59.734375 "/>
<path style=" stroke:none;fill-rule:nonzero;fill:rgb(94.901961%,91.764706%,92.54902%);fill-opacity:1;" d="M 27.734375 10.667969 L 36.265625 10.667969 L 36.265625 18.132812 L 27.734375 18.132812 Z M 27.734375 10.667969 "/>
<path style=" stroke:none;fill-rule:nonzero;fill:rgb(98.823529%,76.470588%,3.137255%);fill-opacity:1;" d="M 27.734375 20.265625 L 36.265625 20.265625 L 36.265625 23.464844 L 27.734375 23.464844 Z M 27.734375 20.265625 "/>
<path style=" stroke:none;fill-rule:nonzero;fill:rgb(98.823529%,76.470588%,3.137255%);fill-opacity:1;" d="M 36.300781 54.660156 C 36.277344 54.574219 36.269531 54.488281 36.269531 54.398438 L 36.269531 35.199219 L 27.734375 35.199219 L 27.734375 54.398438 C 27.734375 54.488281 27.722656 54.574219 27.703125 54.660156 L 26.96875 57.601562 L 37.035156 57.601562 Z M 34.132812 54.398438 L 32 54.398438 L 32 52.265625 L 34.132812 52.265625 Z M 34.132812 50.132812 L 32 50.132812 L 32 48 L 34.132812 48 Z M 34.132812 45.867188 L 32 45.867188 L 32 43.734375 L 34.132812 43.734375 Z M 34.132812 45.867188 "/>
<path style=" stroke:none;fill-rule:nonzero;fill:rgb(94.901961%,91.764706%,92.54902%);fill-opacity:1;" d="M 27.734375 25.601562 L 36.265625 25.601562 L 36.265625 33.066406 L 27.734375 33.066406 Z M 27.734375 25.601562 "/>
<path style=" stroke:none;fill-rule:nonzero;fill:rgb(10.980392%,12.941176%,12.941176%);fill-opacity:1;" d="M 40.535156 57.601562 L 39.230469 57.601562 L 38.398438 54.269531 L 38.398438 1.066406 C 38.398438 0.476562 37.921875 0 37.332031 0 L 26.667969 0 C 26.078125 0 25.601562 0.476562 25.601562 1.066406 L 25.601562 54.269531 L 24.769531 57.601562 L 23.464844 57.601562 C 22.875 57.601562 22.398438 58.078125 22.398438 58.667969 L 22.398438 62.933594 C 22.398438 63.523438 22.875 64 23.464844 64 L 40.535156 64 C 41.125 64 41.601562 63.523438 41.601562 62.933594 L 41.601562 58.667969 C 41.601562 58.078125 41.125 57.601562 40.535156 57.601562 Z M 27.734375 20.265625 L 36.265625 20.265625 L 36.265625 23.464844 L 27.734375 23.464844 Z M 27.734375 10.667969 L 36.265625 10.667969 L 36.265625 18.132812 L 27.734375 18.132812 Z M 27.734375 25.601562 L 36.265625 25.601562 L 36.265625 33.066406 L 27.734375 33.066406 Z M 36.265625 2.132812 L 36.265625 8.535156 L 27.734375 8.535156 L 27.734375 2.132812 Z M 27.703125 54.660156 C 27.722656 54.574219 27.734375 54.488281 27.734375 54.398438 L 27.734375 35.199219 L 36.265625 35.199219 L 36.265625 54.398438 C 36.265625 54.488281 36.277344 54.574219 36.296875 54.660156 L 37.035156 57.601562 L 26.964844 57.601562 Z M 39.464844 61.867188 L 24.535156 61.867188 L 24.535156 59.734375 L 39.464844 59.734375 Z M 39.464844 61.867188 "/>
<path style=" stroke:none;fill-rule:nonzero;fill:rgb(10.980392%,12.941176%,12.941176%);fill-opacity:1;" d="M 18.132812 57.601562 L 16.832031 57.601562 L 16 54.269531 L 16 1.066406 C 16 0.476562 15.523438 0 14.933594 0 L 4.265625 0 C 3.675781 0 3.199219 0.476562 3.199219 1.066406 L 3.199219 54.269531 L 2.367188 57.601562 L 1.066406 57.601562 C 0.476562 57.601562 0 58.078125 0 58.667969 L 0 62.933594 C 0 63.523438 0.476562 64 1.066406 64 L 18.132812 64 C 18.722656 64 19.199219 63.523438 19.199219 62.933594 L 19.199219 58.667969 C 19.199219 58.078125 18.722656 57.601562 18.132812 57.601562 Z M 5.332031 20.265625 L 13.867188 20.265625 L 13.867188 23.464844 L 5.332031 23.464844 Z M 5.332031 10.667969 L 13.867188 10.667969 L 13.867188 18.132812 L 5.332031 18.132812 Z M 5.332031 25.601562 L 13.867188 25.601562 L 13.867188 33.066406 L 5.332031 33.066406 Z M 13.867188 2.132812 L 13.867188 8.535156 L 5.332031 8.535156 L 5.332031 2.132812 Z M 5.300781 54.660156 C 5.324219 54.574219 5.332031 54.488281 5.332031 54.398438 L 5.332031 35.199219 L 13.867188 35.199219 L 13.867188 54.398438 C 13.867188 54.488281 13.878906 54.574219 13.898438 54.660156 L 14.632812 57.601562 L 4.566406 57.601562 Z M 17.066406 61.867188 L 2.132812 61.867188 L 2.132812 59.734375 L 17.066406 59.734375 Z M 17.066406 61.867188 "/>
<path style=" stroke:none;fill-rule:nonzero;fill:rgb(10.980392%,12.941176%,12.941176%);fill-opacity:1;" d="M 62.933594 57.601562 L 61.632812 57.601562 L 60.800781 54.269531 L 60.800781 1.066406 C 60.800781 0.476562 60.324219 0 59.734375 0 L 49.066406 0 C 48.476562 0 48 0.476562 48 1.066406 L 48 54.269531 L 47.167969 57.601562 L 45.867188 57.601562 C 45.277344 57.601562 44.800781 58.078125 44.800781 58.667969 L 44.800781 62.933594 C 44.800781 63.523438 45.277344 64 45.867188 64 L 62.933594 64 C 63.523438 64 64 63.523438 64 62.933594 L 64 58.667969 C 64 58.078125 63.523438 57.601562 62.933594 57.601562 Z M 50.132812 20.265625 L 58.667969 20.265625 L 58.667969 23.464844 L 50.132812 23.464844 Z M 50.132812 10.667969 L 58.667969 10.667969 L 58.667969 18.132812 L 50.132812 18.132812 Z M 50.132812 25.601562 L 58.667969 25.601562 L 58.667969 33.066406 L 50.132812 33.066406 Z M 58.667969 2.132812 L 58.667969 8.535156 L 50.132812 8.535156 L 50.132812 2.132812 Z M 50.101562 54.660156 C 50.125 54.574219 50.132812 54.488281 50.132812 54.398438 L 50.132812 35.199219 L 58.667969 35.199219 L 58.667969 54.398438 C 58.667969 54.488281 58.675781 54.574219 58.699219 54.660156 L 59.433594 57.601562 L 49.367188 57.601562 Z M 61.867188 61.867188 L 46.933594 61.867188 L 46.933594 59.734375 L 61.867188 59.734375 Z M 61.867188 61.867188 "/>
<path style=" stroke:none;fill-rule:nonzero;fill:rgb(10.980392%,12.941176%,12.941176%);fill-opacity:1;" d="M 54.398438 48 L 56.535156 48 L 56.535156 50.132812 L 54.398438 50.132812 Z M 54.398438 48 "/>
<path style=" stroke:none;fill-rule:nonzero;fill:rgb(10.980392%,12.941176%,12.941176%);fill-opacity:1;" d="M 54.398438 43.734375 L 56.535156 43.734375 L 56.535156 45.867188 L 54.398438 45.867188 Z M 54.398438 43.734375 "/>
<path style=" stroke:none;fill-rule:nonzero;fill:rgb(10.980392%,12.941176%,12.941176%);fill-opacity:1;" d="M 54.398438 52.265625 L 56.535156 52.265625 L 56.535156 54.398438 L 54.398438 54.398438 Z M 54.398438 52.265625 "/>
<path style=" stroke:none;fill-rule:nonzero;fill:rgb(10.980392%,12.941176%,12.941176%);fill-opacity:1;" d="M 32 48 L 34.132812 48 L 34.132812 50.132812 L 32 50.132812 Z M 32 48 "/>
<path style=" stroke:none;fill-rule:nonzero;fill:rgb(10.980392%,12.941176%,12.941176%);fill-opacity:1;" d="M 32 43.734375 L 34.132812 43.734375 L 34.132812 45.867188 L 32 45.867188 Z M 32 43.734375 "/>
<path style=" stroke:none;fill-rule:nonzero;fill:rgb(10.980392%,12.941176%,12.941176%);fill-opacity:1;" d="M 32 52.265625 L 34.132812 52.265625 L 34.132812 54.398438 L 32 54.398438 Z M 32 52.265625 "/>
<path style=" stroke:none;fill-rule:nonzero;fill:rgb(10.980392%,12.941176%,12.941176%);fill-opacity:1;" d="M 9.601562 48 L 11.734375 48 L 11.734375 50.132812 L 9.601562 50.132812 Z M 9.601562 48 "/>
<path style=" stroke:none;fill-rule:nonzero;fill:rgb(10.980392%,12.941176%,12.941176%);fill-opacity:1;" d="M 9.601562 43.734375 L 11.734375 43.734375 L 11.734375 45.867188 L 9.601562 45.867188 Z M 9.601562 43.734375 "/>
<path style=" stroke:none;fill-rule:nonzero;fill:rgb(10.980392%,12.941176%,12.941176%);fill-opacity:1;" d="M 9.601562 52.265625 L 11.734375 52.265625 L 11.734375 54.398438 L 9.601562 54.398438 Z M 9.601562 52.265625 "/>
</g>
</svg>
